<?xml version="1.0" encoding="utf-8"?>
<!-- Generator: Adobe Illustrator 27.1.1, SVG Export Plug-In . SVG Version: 6.00 Build 0)  -->
<svg version="1.1" id="Camada_1" xmlns="http://www.w3.org/2000/svg" xmlns:xlink="http://www.w3.org/1999/xlink" x="0px" y="0px"
	 viewBox="0 0 3667 953" style="enable-background:new 0 0 3667 953;" xml:space="preserve">
<style type="text/css">
	.st0{fill:#FFFFFF;}
	.st1{opacity:0.78;}
</style>
<g>
	<path class="st0" d="M676.25,250.82c26.05,0,49.39,5.41,70.04,16.23c20.64,10.82,38.07,25.85,52.31,45.09
		c14.22,19.24,25.15,41.99,32.77,68.24c7.61,26.26,11.42,54.81,11.42,85.67c0,30.87-3.81,59.62-11.42,86.28
		c-7.62,26.66-18.54,49.71-32.77,69.14c-14.23,19.45-31.67,34.67-52.31,45.69c-20.65,11.02-43.99,16.53-70.04,16.53
		c-26.06,0-49.4-5.51-70.04-16.53c-20.65-11.02-38.08-26.25-52.31-45.69c-14.23-19.44-25.16-42.48-32.77-69.14
		c-7.62-26.65-11.42-55.41-11.42-86.28c0-30.86,3.8-59.42,11.42-85.67c7.61-26.25,18.53-49,32.77-68.24
		c14.22-19.24,31.66-34.27,52.31-45.09C626.85,256.23,650.19,250.82,676.25,250.82z M598.09,466.06c0,30.87,2.3,58.53,6.91,82.97
		c4.6,24.45,10.62,45.2,18.04,62.23c7.41,17.04,15.83,30.06,25.25,39.08c9.41,9.02,18.73,13.53,27.96,13.53
		c9.22,0,18.53-4.51,27.96-13.53c9.41-9.02,17.83-22.04,25.25-39.08c7.41-17.03,13.42-37.77,18.04-62.23
		c4.6-24.44,6.91-52.1,6.91-82.97c0-30.86-2.31-58.41-6.91-82.67c-4.61-24.25-10.62-44.69-18.04-61.33
		c-7.42-16.63-15.84-29.36-25.25-38.18c-9.42-8.81-18.74-13.23-27.96-13.23c-9.23,0-18.54,4.42-27.96,13.23
		c-9.42,8.82-17.84,21.55-25.25,38.18c-7.42,16.64-13.43,37.08-18.04,61.33C600.4,407.65,598.09,435.2,598.09,466.06z"/>
	<path class="st0" d="M940.8,256.83c3.2,0,6.01,0.6,8.42,1.8c2,0.81,3.91,2.1,5.71,3.91s2.71,4.51,2.71,8.12s-0.4,7.12-1.2,10.52
		c-0.81,3.41-1.31,7.82-1.5,13.23c-0.21,5.41,0.3,12.33,1.5,20.74c1.2,8.42,3.8,19.24,7.82,32.47l89.58,300.01l81.17-300.01
		c3.2-11.62,3.91-21.44,2.11-29.46c-1.8-8.01-4.31-15.03-7.52-21.04c-3.21-6.01-6.52-11.02-9.92-15.03c-3.41-4-5.11-7.82-5.11-11.42
		c0-2.4,0.8-4.81,2.4-7.21c0.8-1.6,2.3-3.1,4.51-4.51c2.2-1.4,5.51-2.1,9.92-2.1h60.12c3.2,0,6.01,0.6,8.42,1.8
		c2,0.81,3.91,2.1,5.71,3.91s2.71,4.51,2.71,8.12s-2.1,7.32-6.31,11.12c-4.21,3.81-9.22,8.62-15.03,14.43
		c-5.81,5.81-11.72,12.83-17.74,21.04c-6.01,8.22-10.62,18.34-13.83,30.36l-80.56,298.81c-2.4,8.82-5.11,16.23-8.12,22.25
		c-3.01,6.01-7.52,9.02-13.53,9.02h-59.52c-9.23,0-17.04-10.01-23.45-30.06l-89.58-300.01c-3.61-12.02-7.92-22.14-12.93-30.36
		c-5.02-8.21-9.83-15.12-14.43-20.74c-4.61-5.61-8.52-10.42-11.72-14.43c-3.21-4-4.81-7.82-4.81-11.42c0-2.4,0.8-4.81,2.4-7.21
		c0.8-1.6,2.3-3.1,4.51-4.51c2.2-1.4,5.5-2.1,9.92-2.1H940.8z"/>
	<path class="st0" d="M1226.38,270.66c0-2.4,0.8-4.81,2.4-7.21c0.8-1.6,2.3-3.1,4.51-4.51c2.2-1.4,5.5-2.1,9.92-2.1h248.31
		c7.21,0,10.72,1.71,10.52,5.11c-0.21,3.41-1.31,6.72-3.31,9.92l-22.85,37.28c-1.2,1.61-2.61,3.01-4.21,4.21
		c-1.2,1.2-2.61,2.31-4.21,3.31c-1.61,1-3.41,1.5-5.41,1.5c-2.01,0-4.21-0.6-6.61-1.8c-3.21-1.6-5.71-4.51-7.52-8.72
		c-1.8-4.21-4.61-8.61-8.42-13.23c-3.81-4.6-9.42-8.72-16.83-12.33c-7.42-3.61-18.34-5.41-32.77-5.41h-51.1
		c-5.62,0-9.62,6.52-12.02,19.54c-2.41,13.03-3.61,30.16-3.61,51.4v115.44c15.23-0.8,26.85-3.31,34.87-7.51
		c8.01-4.21,14.22-8.72,18.64-13.53c4.41-4.81,8.01-9.11,10.82-12.93c2.8-3.8,6.41-5.71,10.82-5.71c1.6,0,3.2,0.4,4.81,1.2
		c1.2,0.81,2.3,2.01,3.31,3.61c1,1.61,1.5,4.01,1.5,7.21v75.15c0,2.41-0.4,4.42-1.2,6.01c-1.61,4.01-4.42,6.01-8.42,6.01
		c-4.42,0-8.02-2-10.82-6.01c-2.81-4-6.42-8.42-10.82-13.23c-4.42-4.81-10.62-9.32-18.64-13.53c-8.02-4.21-19.64-6.51-34.87-6.91
		v104.01c0,21.25,1.2,38.38,3.61,51.4c2.4,13.03,6.41,19.54,12.02,19.54h63.73c15.23,0,27.85-2.9,37.88-8.72
		c10.01-5.81,18.53-12.33,25.55-19.54c7.01-7.21,13.02-13.72,18.04-19.54c5.01-5.81,9.92-8.72,14.73-8.72c2,0,3.8,0.6,5.41,1.8
		c3.2,2.4,4.11,7.02,2.71,13.83c-1.41,6.82-3.71,13.83-6.91,21.04c-3.21,7.21-8.02,16.64-14.43,28.26
		c-2.81,4.81-7.52,7.92-14.13,9.32c-6.61,1.41-12.13,2.1-16.53,2.1h-211.63c-3.21,0-6.01-0.6-8.42-1.8c-2.01-0.8-3.91-2.2-5.71-4.21
		c-1.8-2-2.71-4.6-2.71-7.82c0-3.61,0.9-7.31,2.71-11.12c1.8-3.8,3.7-8.51,5.71-14.13c2-5.61,3.91-12.52,5.71-20.74
		c1.8-8.21,2.71-18.53,2.71-30.96V347.62c0-12.42-0.9-22.74-2.71-30.96c-1.8-8.21-3.71-15.12-5.71-20.74
		c-2.01-5.61-3.91-10.32-5.71-14.13C1227.28,277.98,1226.38,274.27,1226.38,270.66z"/>
	<path class="st0" d="M1525.78,663.86c0-3.61,0.9-7.31,2.71-11.12c1.8-3.8,3.7-8.51,5.71-14.13c2-5.61,3.91-12.52,5.71-20.74
		c1.8-8.21,2.71-18.53,2.71-30.96V347.62c0-12.42-0.9-22.74-2.71-30.96c-1.8-8.21-3.71-15.12-5.71-20.74
		c-2.01-5.61-3.91-10.32-5.71-14.13c-1.8-3.8-2.71-7.52-2.71-11.12c0-9.22,5.61-13.83,16.83-13.83h79.96c2,0,3.8,0.21,5.41,0.6
		c3.61,0.81,6.61,2.61,9.02,5.41c16.83-8.01,34.47-12.03,52.91-12.03c16.43,0,31.87,3.01,46.29,9.02
		c14.43,6.01,27.05,14.73,37.88,26.15c10.82,11.42,19.33,25.36,25.55,41.79c6.21,16.44,9.32,35.08,9.32,55.91
		c0,33.67-7.82,62.23-23.45,85.67c-15.63,23.45-35.68,39.18-60.12,47.2c12.02,8.82,22.14,18.74,30.36,29.76
		c8.21,11.03,15.03,21.75,20.44,32.17c5.41,10.43,9.82,20.05,13.23,28.86c3.4,8.82,5.91,15.43,7.52,19.84
		c2,4.42,4.3,8.12,6.91,11.12c2.6,3.01,5.11,5.71,7.52,8.12c2.41,2.4,4.51,4.91,6.31,7.52c1.8,2.61,2.71,5.92,2.71,9.92
		c0,5.62-1.8,9.32-5.41,11.12s-7.82,2.71-12.63,2.71h-75.75c-5.21,0-9.22-2.5-12.02-7.52c-2.81-5.01-5.21-12.93-7.21-23.75
		c-1.61-9.62-3.71-20.34-6.31-32.17c-2.61-11.82-5.71-23.64-9.32-35.47c-3.61-11.82-7.82-23.04-12.63-33.67
		c-4.81-10.62-10.62-19.54-17.44-26.75c-13.63-3.61-26.66-10.01-39.08-19.24v87.78c0,12.43,0.9,22.75,2.71,30.96
		c1.8,8.22,3.7,15.13,5.71,20.74c2,5.62,3.91,10.32,5.71,14.13c1.8,3.81,2.71,7.52,2.71,11.12c0,9.22-5.62,13.83-16.83,13.83h-79.96
		c-3.21,0-6.01-0.6-8.42-1.8c-2.01-0.8-3.91-2.2-5.71-4.21C1526.68,669.68,1525.78,667.08,1525.78,663.86z M1622.58,468.46
		c6.01,6.01,12.72,10.82,20.14,14.43c7.41,3.61,15.12,5.41,23.15,5.41c10.82,0,19.74-3.01,26.75-9.02
		c7.01-6.01,12.62-13.83,16.83-23.45c4.21-9.62,7.11-20.74,8.72-33.37c1.6-12.63,2.41-25.55,2.41-38.78
		c0-13.23-0.81-25.85-2.41-37.88c-1.61-12.02-4.51-22.55-8.72-31.56s-9.83-16.23-16.83-21.64c-7.02-5.41-15.93-8.12-26.75-8.12
		c-10.43,0-18.54,1.61-24.35,4.81c-5.82,3.21-10.13,7.72-12.93,13.53c-2.81,5.81-4.51,12.53-5.11,20.14
		c-0.6,7.62-0.9,15.84-0.9,24.65V468.46z"/>
	<path class="st0" d="M2020.58,250.82c12.82,0,25.65,1.41,38.48,4.21c12.82,2.81,24.44,6.82,34.87,12.02
		c10.42,5.21,18.94,11.72,25.55,19.54c6.61,7.82,9.92,16.74,9.92,26.75c0,7.62-3.21,14.94-9.62,21.94
		c-6.42,7.02-15.43,10.52-27.05,10.52c-10.82,0-19.24-3.91-25.25-11.72c-6.01-7.82-11.12-16.43-15.33-25.85
		c-4.21-9.41-8.52-18.04-12.93-25.85c-4.42-7.82-10.62-11.72-18.64-11.72c-6.42,0-14.83,3.41-25.25,10.22
		c-10.43,6.82-20.74,18.04-30.96,33.67s-19.04,36.18-26.45,61.63c-7.42,25.46-11.12,56.82-11.12,94.09
		c0,35.68,3.61,65.83,10.82,90.49s16.03,44.59,26.45,59.82c10.42,15.24,21.34,26.26,32.77,33.07c11.42,6.82,21.34,10.22,29.76,10.22
		c7.21,0,13.83-1.6,19.84-4.81c6.01-3.2,11.22-7.41,15.63-12.63c4.41-5.2,8.21-11.12,11.42-17.74c3.2-6.61,5.61-13.12,7.21-19.54
		c2-7.21,5.31-12.33,9.92-15.33c4.6-3.01,9.52-4.51,14.73-4.51c6.81,0,13.02,2.61,18.64,7.82c5.61,5.21,7.41,12.02,5.41,20.44
		c-1.2,5.21-4.21,11.63-9.02,19.24c-4.81,7.62-11.53,14.94-20.14,21.95c-8.62,7.02-19.04,12.93-31.26,17.74
		c-12.23,4.81-26.36,7.21-42.39,7.21c-26.06,0-50.5-4.51-73.35-13.53s-42.79-22.34-59.82-39.98
		c-17.04-17.63-30.46-39.88-40.28-66.74c-9.83-26.85-14.73-57.92-14.73-93.19c0-37.28,4.9-69.64,14.73-97.1
		c9.82-27.45,22.94-50.3,39.38-68.54c16.43-18.23,35.77-31.76,58.02-40.58C1972.79,255.24,1996.13,250.82,2020.58,250.82z"/>
	<path class="st0" d="M2314.58,250.82c26.05,0,49.39,5.41,70.04,16.23c20.64,10.82,38.07,25.85,52.31,45.09
		c14.22,19.24,25.15,41.99,32.77,68.24c7.61,26.26,11.42,54.81,11.42,85.67c0,30.87-3.81,59.62-11.42,86.28
		c-7.62,26.66-18.54,49.71-32.77,69.14c-14.23,19.45-31.67,34.67-52.31,45.69c-20.65,11.02-43.99,16.53-70.04,16.53
		c-26.06,0-49.4-5.51-70.04-16.53c-20.65-11.02-38.08-26.25-52.31-45.69c-14.23-19.44-25.16-42.48-32.77-69.14
		c-7.62-26.65-11.42-55.41-11.42-86.28c0-30.86,3.8-59.42,11.42-85.67c7.61-26.25,18.54-49,32.77-68.24
		c14.22-19.24,31.66-34.27,52.31-45.09C2265.18,256.23,2288.53,250.82,2314.58,250.82z M2236.42,466.06
		c0,30.87,2.3,58.53,6.92,82.97c4.6,24.45,10.62,45.2,18.04,62.23c7.41,17.04,15.83,30.06,25.25,39.08
		c9.41,9.02,18.73,13.53,27.96,13.53c9.22,0,18.53-4.51,27.96-13.53c9.41-9.02,17.83-22.04,25.25-39.08
		c7.41-17.03,13.42-37.77,18.04-62.23c4.6-24.44,6.91-52.1,6.91-82.97c0-30.86-2.31-58.41-6.91-82.67
		c-4.61-24.25-10.62-44.69-18.04-61.33c-7.42-16.63-15.84-29.36-25.25-38.18c-9.42-8.81-18.74-13.23-27.96-13.23
		c-9.23,0-18.54,4.42-27.96,13.23c-9.42,8.82-17.84,21.55-25.25,38.18c-7.42,16.64-13.43,37.08-18.04,61.33
		C2238.73,407.65,2236.42,435.2,2236.42,466.06z"/>
	<path class="st0" d="M2498.56,668.07c0-4.41,2-8.01,6.01-10.82c4-2.8,8.42-6.41,13.23-10.82c4.81-4.41,9.32-10.72,13.53-18.94
		c4.21-8.21,6.51-19.74,6.91-34.57V341.61c-0.4-15.23-2.71-26.85-6.91-34.87c-4.21-8.01-8.72-14.22-13.53-18.64
		c-4.81-4.41-9.22-8.01-13.23-10.82c-4.01-2.8-6.01-6.41-6.01-10.82c0-1.6,0.6-3.2,1.8-4.81c1.6-3.2,5.01-4.81,10.22-4.81h47.5
		c16.83,0,32.06,5.11,45.69,15.33c13.62,10.22,25.85,23.66,36.67,40.28c10.82,16.64,20.34,35.77,28.56,57.42
		c8.21,21.64,15.42,43.99,21.64,67.04c6.21,23.05,11.52,45.8,15.93,68.24c4.41,22.45,8.12,42.89,11.12,61.33
		c3.01,18.44,5.5,33.97,7.52,46.6c2,12.63,3.61,20.54,4.81,23.75l58.92-366.15c0-2.4,0.8-4.81,2.4-7.21c0.8-1.6,2.3-3.1,4.51-4.51
		c2.2-1.4,5.5-2.1,9.92-2.1h79.96c11.22,0,16.83,4.61,16.83,13.83c0,3.61-0.9,7.32-2.71,11.12c-1.8,3.81-3.71,8.52-5.71,14.13
		c-2.01,5.62-3.91,12.53-5.71,20.74c-1.8,8.22-2.71,18.54-2.71,30.96v239.29c0,12.43,0.9,22.75,2.71,30.96
		c1.8,8.22,3.7,15.13,5.71,20.74c2,5.62,3.91,10.32,5.71,14.13c1.8,3.81,2.71,7.52,2.71,11.12c0,2.41-0.6,4.61-1.8,6.61
		c-1.2,2.01-2.91,3.71-5.11,5.11c-2.21,1.41-5.51,2.1-9.92,2.1h-79.96c-11.23,0-16.83-4.6-16.83-13.83c0-3.61,0.9-7.31,2.71-11.12
		c1.8-3.8,3.7-8.51,5.71-14.13c2-5.61,3.91-12.52,5.71-20.74c1.8-8.21,2.71-18.53,2.71-30.96V347.62c0-6.81-0.3-13.02-0.9-18.64
		c-0.6-5.61-1.31-10.62-2.1-15.03l-57.12,351.12c-0.81,4.42-2.81,7.62-6.01,9.62c-3.21,2.01-7.02,3.01-11.42,3.01h-67.34
		c-5.21,0-9.23-2.5-12.03-7.52c-2.81-5.01-5.21-12.93-7.21-23.75c-1.61-8.42-3.71-21.74-6.31-39.98
		c-2.61-18.23-5.62-38.48-9.02-60.72c-3.41-22.25-7.42-45.19-12.02-68.84c-4.61-23.65-9.83-45.19-15.63-64.63
		c-5.81-19.44-12.02-35.47-18.64-48.1s-13.93-18.94-21.95-18.94v247.71c0.8,14.83,3.31,26.36,7.52,34.57
		c4.21,8.22,8.72,14.53,13.53,18.94c4.81,4.42,9.11,8.02,12.93,10.82c3.8,2.81,5.71,6.42,5.71,10.82c0,1.61-0.4,3.21-1.2,4.81
		c-0.81,1.2-2.01,2.31-3.61,3.31c-1.61,1-4.01,1.5-7.21,1.5h-75.15C2502.56,677.69,2498.56,674.49,2498.56,668.07z"/>
	<path class="st0" d="M2920.62,270.66c0-2.4,0.8-4.81,2.4-7.21c0.8-1.6,2.3-3.1,4.51-4.51c2.2-1.4,5.5-2.1,9.92-2.1h248.31
		c7.21,0,10.72,1.71,10.52,5.11c-0.21,3.41-1.31,6.72-3.31,9.92l-22.85,37.28c-1.2,1.61-2.61,3.01-4.21,4.21
		c-1.2,1.2-2.61,2.31-4.21,3.31c-1.61,1-3.41,1.5-5.41,1.5c-2.01,0-4.21-0.6-6.61-1.8c-3.21-1.6-5.71-4.51-7.52-8.72
		c-1.8-4.21-4.61-8.61-8.42-13.23c-3.81-4.6-9.42-8.72-16.83-12.33c-7.42-3.61-18.34-5.41-32.77-5.41h-51.1
		c-5.62,0-9.62,6.52-12.02,19.54c-2.41,13.03-3.61,30.16-3.61,51.4v115.44c15.23-0.8,26.85-3.31,34.87-7.51
		c8.01-4.21,14.22-8.72,18.64-13.53c4.41-4.81,8.01-9.11,10.82-12.93c2.8-3.8,6.41-5.71,10.82-5.71c1.6,0,3.2,0.4,4.81,1.2
		c1.2,0.81,2.3,2.01,3.31,3.61c1,1.61,1.5,4.01,1.5,7.21v75.15c0,2.41-0.4,4.42-1.2,6.01c-1.61,4.01-4.42,6.01-8.42,6.01
		c-4.42,0-8.02-2-10.82-6.01c-2.81-4-6.42-8.42-10.82-13.23c-4.42-4.81-10.62-9.32-18.64-13.53c-8.02-4.21-19.64-6.51-34.87-6.91
		v104.01c0,21.25,1.2,38.38,3.61,51.4c2.4,13.03,6.41,19.54,12.02,19.54h63.73c15.23,0,27.85-2.9,37.88-8.72
		c10.01-5.81,18.53-12.33,25.55-19.54c7.01-7.21,13.02-13.72,18.04-19.54c5.01-5.81,9.92-8.72,14.73-8.72c2,0,3.8,0.6,5.41,1.8
		c3.2,2.4,4.11,7.02,2.71,13.83c-1.41,6.82-3.71,13.83-6.91,21.04c-3.21,7.21-8.02,16.64-14.43,28.26
		c-2.81,4.81-7.52,7.92-14.13,9.32c-6.61,1.41-12.13,2.1-16.53,2.1h-211.63c-3.21,0-6.01-0.6-8.42-1.8c-2.01-0.8-3.91-2.2-5.71-4.21
		c-1.8-2-2.71-4.6-2.71-7.82c0-3.61,0.9-7.31,2.71-11.12c1.8-3.8,3.7-8.51,5.71-14.13c2-5.61,3.91-12.52,5.71-20.74
		c1.8-8.21,2.71-18.53,2.71-30.96V347.62c0-12.42-0.9-22.74-2.71-30.96c-1.8-8.21-3.71-15.12-5.71-20.74
		c-2.01-5.61-3.91-10.32-5.71-14.13C2921.52,277.98,2920.62,274.27,2920.62,270.66z"/>
</g>
</svg>
