<?xml version="1.0" encoding="utf-8"?>
<!-- Generator: Adobe Illustrator 27.1.1, SVG Export Plug-In . SVG Version: 6.00 Build 0)  -->
<svg version="1.1" id="Camada_1" xmlns="http://www.w3.org/2000/svg" xmlns:xlink="http://www.w3.org/1999/xlink" x="0px" y="0px"
	 viewBox="0 0 1076 1137" style="enable-background:new 0 0 1076 1137;" xml:space="preserve">
<style type="text/css">
	.st0{fill:#FFFFFF;}
	.st1{opacity:0.78;}
	.st2{opacity:0.47;fill:#FFFFFF;}
	.st3{fill:#B6B2A7;}
	.st4{fill:#032B33;}
</style>
<g>
	<path class="st3" d="M909.66,602.9c-4.46,0.69-8.33,4.1-13.2,2.87c-1.96-1.98-3.93-1.98-5.9-0.01c-0.49,0-0.98,0.01-1.47,0.01
		c-6.37-8.09-15.61-11.9-23.38-9.63c-4.87-0.08-7.03-4.16-9.87-7c-95.26-95.16-190.45-190.38-285.66-285.59
		c-11.64-11.64-23.31-23.25-34.89-34.95c-2.18-2.2-5.12-4.02-5.16-7.7c0.13-0.97-0.14,0.24,0.02-0.73c1.58-9.8,1.58-9.8-7.51-13.65
		c-1.8-1.87-2.29-3.91-0.77-6.19l0.4,0.15c0.84-3.49,0.82-6.98,0.01-10.47c-0.13-7.37,4.27-12.99,7.39-19.1
		c4.29-1.93,7.57-4.98,9.99-8.99c5.75-4.01,11.86-7.08,19.05-7.33c3.06-0.95,6.12-0.95,9.18,0c0.93-0.05,1.85-0.09,2.78-0.14
		c2.11-1.14,3.64-0.18,5.01,1.37c0.87,9.2,7.63,7.19,13.42,7.01c4.35-0.23,6.39,3.24,8.91,5.74c21.7,21.55,43.25,43.25,64.95,64.81
		c85.03,85.28,170.32,170.32,255.39,255.57c2.69,2.69,6.37,4.82,6.7,9.28c-2.41,9.21,2.74,15.67,8.02,22.08
		c0.19,0.45,0.32,0.93,0.39,1.41c-0.17,1.51-0.17,3.03,0.01,4.54c0.28,5.13-0.84,9.99-2.84,14.69c0.5,4.85-2.23,7.86-5.91,10.32
		c-1.58,1.91-3.15,3.82-4.73,5.73C917.31,600.3,914.25,602.95,909.66,602.9z"/>
	<path class="st3" d="M603.1,910c-4.4,3.15-9.35,4.8-14.69,5.35c-3.49-0.81-6.98-0.83-10.47,0.02l0.17,0.39
		c-0.97,0.69-2.04,1.04-3.24,0.9c-1.54-0.34-2.72-1.19-3.54-2.53c-2.28-9.53-2.61-9.72-13.27-7.17c-0.65,0.28-1.32,0.4-2.03,0.37
		c-2.93-1.01-4.7-3.48-6.76-5.54c-76.2-76.17-152.38-152.35-228.55-228.56c-2.41-2.41-5.17-4.58-6.33-8
		c-0.62-3.74-0.71-7.96-6.47-6.89c-3.41-0.61-5.37-3.27-7.59-5.49c-22.86-22.81-45.69-45.65-68.5-68.5
		c-2.58-2.58-5.48-4.97-6.25-8.85c0.2-11.46-6.51-21.2-8.03-32.24c-0.38-2.74-3.35-3.32-4.85-5.15l-0.49,0.17
		c-0.38-0.57-0.67-1.18-0.87-1.83c-0.24-2.46,0.79-4.63,1.51-6.88c0.58-1.21,1.4-2.29,1.96-3.52c2-4.76,4.91-8.85,8.8-12.25
		c3.88-4.09,8.51-6.84,14.06-7.98c3.88-0.92,7.76-1.84,11.64-2.76c2.44,3.66,5.51,5.95,10.25,5.12c1.73-0.3,3.27,0.43,4.67,1.53
		c5.77,4.55,12.64,5.71,19.69,6.29c3.85,0.86,6.21,3.81,8.79,6.39c106.52,106.5,213.04,213.02,319.53,319.55
		c1.72,1.73,3.66,3.29,4.73,5.58c0.1,0.67,0.13,1.35,0.12,2.02c-0.6,5.07-0.26,9.67,5.81,11.35c1.39,1.84,2.42,3.74,1.1,6.07
		c-0.04,0.93-0.09,1.85-0.13,2.78c0.92,2.57,0.92,5.14,0,7.71c0.03,5.04-2.03,9.64-3.12,14.45c-0.82,2.3-1.47,4.74-4.23,5.58
		c-8.74,0.8-9.23,1.35-8.43,9.67C607.24,909.53,605.62,910.56,603.1,910z"/>
	<path class="st3" d="M243.39,658.84c2.18,0.92,3.99-0.36,5.91-0.98c2.33,3.35,5.25,5.34,9.6,5.47c4.73,0.14,8.51,3.33,12.78,4.99
		c3.9,1.52,7.98,1.98,12.07,2.44c3.6,0.73,5.88,3.38,8.3,5.79c55.11,55.08,110.19,110.19,165.31,165.26
		c2.28,2.28,4.28,4.69,5.63,7.62c1.64,6.32,5.36,11.76,6.26,18.6c1.06,8.05-0.79,15.19-2.99,22.53c0.49,3.12-0.73,5.45-3.28,7.17
		c-3.49,2.56-4.62,7.34-8.77,9.28c-1.83,2.52-3.48,5.34-7.37,4.43c-10.4,5.61-21.36,4.92-32.45,2.94c-0.58,0.32-1.2,0.43-1.86,0.34
		c-2.7-1.11-5.47-2.11-7.39-4.5c-1.18-1.85-3.64-1.53-5.08-2.96c-56.52-56.23-112.78-112.72-169.18-169.07
		c-2.25-2.25-4.62-4.45-5.28-7.8c-0.35-6.19-1.59-12.12-4.26-17.78c-1.67-3.54-3.16-7.32-3.21-11.27c-0.06-4.39-2.05-7.41-5.43-9.81
		c-0.02-0.96-0.05-1.93-0.07-2.89c0.09-8.41,5.37-14.05,10.55-19.74c0.75-0.75,1.43-1.56,2.25-2.23
		C231.09,663.31,235.83,657.82,243.39,658.84z"/>
	<path class="st3" d="M722.67,194.59c0.93-0.05,1.85-0.09,2.78-0.14c2.08-1.14,3.6-0.21,4.97,1.31c1.23,8.77,7.67,7.48,13.67,7.07
		c3.45-0.26,5.28,2.31,7.32,4.34c55.95,55.89,111.86,111.81,167.76,167.75c2.06,2.06,4.43,3.97,4.82,7.19
		c-2.07,9.77,2.33,17.04,9.08,23.4c0.19,0.46,0.32,0.93,0.39,1.41c-0.42,1.51-0.41,3.03,0.01,4.54c0.28,5.13-0.85,9.99-2.85,14.69
		c0.5,4.85-2.23,7.86-5.91,10.32c-1.58,1.91-3.15,3.82-4.73,5.73c-2.67,3.3-5.73,5.95-10.32,5.9c-4.46,0.69-8.33,4.11-13.2,2.87
		c-1.96-1.98-3.93-1.98-5.9-0.01c-0.49,0-0.98,0.01-1.47,0.01c-5.57-7.75-15.58-11.88-23.37-9.63c-3.47,0.32-5.25-2.32-7.27-4.34
		c-55.84-55.78-111.65-111.59-167.43-167.42c-2.23-2.23-4.77-4.32-5.15-7.8c-0.03-0.48-0.04-0.95,0.02-1.43
		c1.33-10.44,1.34-10.44-8.14-13.57c-2.12-1.85-2.47-3.99-1.1-6.43l0.4,0.13c0.84-3.49,0.82-6.98,0.01-10.47
		c-0.36-6.23,3.23-11.02,5.89-16.16c7.1-2.02,12.07-6.33,14.43-13.44c4.81-3.5,10.09-5.7,16.11-5.83
		C716.55,193.64,719.61,193.64,722.67,194.59z"/>
	<path class="st3" d="M573.55,508.54c26.6-26.81,53.21-53.59,79.76-80.45c2.75-2.78,4.78-2.36,7.33,0.22
		c12.95,13.08,25.96,26.1,39.05,39.05c2.11,2.08,2.73,3.42,0.27,5.87c-42.14,41.82-84.19,83.74-126.26,125.63
		c-2.8-2.73-2.41-6.32-2.42-9.69c-0.09-23.32-0.03-46.65-0.05-69.98C571.22,515.45,571.64,511.85,573.55,508.54z"/>
	<path class="st3" d="M573.55,508.54c0.05,30.11,0.09,60.21,0.14,90.32c-1.14,1.78-2.01,3.84-3.47,5.3
		c-17.93,17.89-35.94,35.69-53.93,53.51c-3.29,1.97-6.92,2.22-10.65,2.21c-12.99-0.04-25.97,0.02-38.95,0
		c-2.6,0.44-4.79-0.5-6.66-2.21c-5.19-4.77-10.19-9.73-14.92-14.95c-1.41-1.55-3.09-3.37-1.08-5.71
		c11.34-11.17,22.73-22.29,34.02-33.5C509.91,571.88,541.72,540.21,573.55,508.54z"/>
	<path class="st3" d="M830.29,250.78c15.5-15.33,31.18-30.48,46.4-46.08c4.93-5.05,8.16-5.1,13.02,0.03
		c11.31,11.93,23.08,23.41,34.82,34.92c3.64,3.57,4.66,5.97,0.26,10.24c-15.63,15.18-30.76,30.88-46.08,46.39
		c-2.77,2.57-5.13,0.82-7.04-1.03c-13.54-13.1-26.84-26.45-39.98-39.95C830.55,254.13,829.27,252.74,830.29,250.78z"/>
	<path class="st3" d="M315.89,858.13c-16.35,16.52-32.75,32.99-49,49.6c-2.37,2.42-3.71,1.98-5.85-0.18
		c-13.43-13.59-26.94-27.1-40.52-40.53c-2.16-2.13-2.61-3.48-0.18-5.85c16.61-16.25,33.08-32.65,49.6-49
		c2.91-0.59,4.46,1.57,6.12,3.22c12.27,12.15,24.47,24.35,36.62,36.62C314.31,853.67,316.47,855.22,315.89,858.13z"/>
	<path class="st3" d="M464.47,659.26c1.78-2.41,4.4-1.61,6.72-1.62c15.03-0.04,30.07,0.01,45.1,0.03
		c-7.94,8.29-15.87,16.57-23.81,24.86c-0.44,0.54-0.93,1.03-1.47,1.47c-2.01,1.15-3.82,0.49-5.29-0.9
		c-7.18-6.8-14.42-13.54-20.82-21.11C464.27,661.24,464.15,660.25,464.47,659.26z"/>
	<path class="st3" d="M227.13,731.49c-2.38-2.04-4.76-4.08-7.13-6.12c-6.99-10.3-8.84-21.71-7.3-33.85c3.6-0.1,7.22,0,7.06,4.97
		c-0.22,7.02,2.3,13.12,5.24,19.34C227.25,720.62,227.71,726.09,227.13,731.49z"/>
	<path class="st3" d="M227.13,576.7c-2.41-2.08-4.83-4.16-7.24-6.24c-1.1-0.68-0.64-2.14-1.47-2.95c-6.36-8.93-6.63-19.05-5.71-29.4
		c4.96-0.55,7.41,0.79,7.39,6.65c-0.02,4.4,1.5,9.18,3.58,13.12C226.87,563.95,227.31,570.19,227.13,576.7z"/>
	<path class="st3" d="M281.67,513.3c0.49,0.49,0.99,0.98,1.48,1.47c0.57,0.91,1.14,1.81,1.7,2.72c-8.25,0.28-16.1-0.93-22.36-6.88
		c-1.91-1.82-3.67-0.41-5.36-0.32c-5.32,0.29-8.57-1.18-7.82-7.23c11.2-0.23,21.46,2.83,30.9,8.78
		C281.17,511.84,281.25,512.75,281.67,513.3z"/>
	<path class="st3" d="M281.67,668.1c1.06,1.4,2.12,2.8,3.19,4.19c-6.18,0.32-11.9-0.83-17.48-3.85c-3.47-1.88-7.03-4.25-11.59-3.53
		c-5.3,0.84-6.93-2.3-6.48-7.05c11.2-0.23,21.46,2.83,30.9,8.78C281.21,666.6,281.32,667.46,281.67,668.1z"/>
	<path class="st3" d="M865.67,442.31c-0.11-0.41-0.18-0.82-0.23-1.24c0.23-0.69,0.25-1.74,0.72-2.01
		c6.61-3.79,22.18,4.35,22.93,11.92c-8.63,1.62-14.77-4.36-21.94-7.2C866.51,443.44,865.65,443.32,865.67,442.31z"/>
	<path class="st3" d="M867.04,598.46c-0.53-0.86-1.06-1.73-1.59-2.59c0.4-0.84,0.6-2.14,1.25-2.44c6.57-2.97,20.93,5.01,22.4,12.33
		C880.4,607.36,874.22,601.41,867.04,598.46z"/>
	<path class="st3" d="M923.06,381.76c1.43,1.09,2.86,2.19,4.29,3.28c1.71,6.88,7.42,12.64,5.72,20.47
		C924.7,403.41,919.67,391.46,923.06,381.76z"/>
	<path class="st3" d="M924.62,538.14c0.91,0.57,1.82,1.13,2.72,1.7c1.71,6.88,7.42,12.64,5.72,20.47
		C925.23,558.33,919.63,543.61,924.62,538.14z"/>
	<path class="st3" d="M557.34,906.91c3.18-5.3,8.55-3.6,12.46-2.58c4.53,1.19,1.51,6.28,2.34,9.55c-1.43,1.49-2.88,1.45-4.35,0.04
		c-3.39-1.95-6.27-4.8-10.22-5.77c-0.6-0.18-0.84-0.42-0.71-0.73C557.01,907.09,557.17,906.91,557.34,906.91z"/>
	<path class="st3" d="M687.07,262.67c-1.43-1.1-2.86-2.19-4.29-3.29c-1.09-2.89-2.17-5.78-3.26-8.67c-1.45-1.23-2.96-2.44-0.99-4.42
		C689.67,246.37,690.82,248.57,687.07,262.67z"/>
	<path class="st3" d="M697.38,200.42c-0.05,10.02-3.66,13.38-14.43,13.44C685.77,207.25,690.34,202.5,697.38,200.42z"/>
	<path class="st3" d="M589.76,202.25c0.05,0.42,0.12,0.83,0.23,1.23c-1.83,0.51-3.64,1.32-5.5,1.48c-9.13,0.78-9.3,0.57-9.4-8.54
		c0.84-1.01,1.83-1.14,2.95-0.48C581.95,198.04,585.86,200.14,589.76,202.25z"/>
	<path class="st3" d="M744.55,202.25c0.05,0.42,0.12,0.83,0.23,1.23c-1.85,0.51-3.67,1.22-5.55,1.49
		c-6.52,0.94-10.56-0.98-9.35-8.56c0.84-1.01,1.83-1.14,2.95-0.48C736.73,198.04,740.64,200.14,744.55,202.25z"/>
	<path class="st3" d="M530.8,261.21c-0.41-0.1-0.82-0.18-1.24-0.23c-0.39-4-4.76-6.11-4.83-10.26c-1.45-1.23-2.96-2.44-0.99-4.42
		C533.94,247.11,535.3,249.98,530.8,261.21z"/>
	<path class="st3" d="M607.65,906.81c-3.54-2.39-2.52-5.7-0.88-8.24c2.3-3.56,6.18-2.84,9.77-2.06c0.71,0.97,0.57,1.86-0.26,2.67
		c-1.96,1.98-3.92,3.95-5.88,5.93C609.74,906.09,609.35,907.5,607.65,906.81z"/>
	<path class="st3" d="M622.03,861.06c-7.87-0.79-8.33-1.77-5.6-11.96c0.62-0.57,1.07-0.45,1.35,0.33c0.47,3.39,2.29,6.12,4.29,8.75
		C623.17,859.16,622.98,860.11,622.03,861.06z"/>
	<path class="st3" d="M539.66,201.93c-0.18,6.49-3.81,9.16-9.99,8.99C532.32,207.16,534.75,203.17,539.66,201.93z"/>
	<path class="st3" d="M890.56,605.75c0.15-1.75,0.74-3.45,2.61-3.64c2.39-0.24,3.04,1.66,3.28,3.65
		C894.49,605.76,892.52,605.76,890.56,605.75z"/>
	<path class="st3" d="M890.56,450.96c0.15-1.75,0.74-3.45,2.61-3.64c2.39-0.24,3.04,1.66,3.28,3.65
		C894.49,450.97,892.52,450.96,890.56,450.96z"/>
	<path class="st3" d="M933.46,411.47c-3.18-1.51-3.18-3.02-0.01-4.54C935.4,408.44,935.42,409.95,933.46,411.47z"/>
	<path class="st3" d="M677.06,230.02c1.96,3.49,1.91,6.98-0.01,10.47C677.05,237,677.06,233.51,677.06,230.02z"/>
	<path class="st3" d="M522.28,230.02c1.96,3.49,1.91,6.98-0.01,10.47C522.27,237,522.27,233.51,522.28,230.02z"/>
	<path class="st3" d="M933.46,566.27c-2.07-1.51-2.07-3.02-0.01-4.54C935.54,563.23,935.56,564.75,933.46,566.27z"/>
	<path class="st3" d="M722.67,194.59c-3.06,0-6.12,0-9.18,0C716.55,192.59,719.61,192.35,722.67,194.59z"/>
	<path class="st3" d="M567.89,194.59c-3.06,0-6.12,0-9.18,0C561.77,192.59,564.83,192.35,567.89,194.59z"/>
	<path class="st3" d="M623.85,877.44c0-2.57,0-5.14,0-7.71C626.08,872.31,626.06,874.87,623.85,877.44z"/>
	<path class="st3" d="M315.57,665.16c-2.87-2.04-5.33-4.49-7.37-7.37C314.76,655.26,315.54,656.05,315.57,665.16z"/>
</g>
</svg>
