<?xml version="1.0" encoding="utf-8"?>
<!-- Generator: Adobe Illustrator 27.1.1, SVG Export Plug-In . SVG Version: 6.00 Build 0)  -->
<svg version="1.1" id="Camada_1" xmlns="http://www.w3.org/2000/svg" xmlns:xlink="http://www.w3.org/1999/xlink" x="0px" y="0px"
	 viewBox="0 0 1702 1137" style="enable-background:new 0 0 1702 1137;" xml:space="preserve">
<style type="text/css">
	.st0{fill:#FFFFFF;}
	.st1{opacity:0.78;}
	.st2{opacity:0.47;fill:#FFFFFF;}
	.st3{fill:#B6B2A7;}
	.st4{fill:#032B33;}
</style>
<g>
	<g>
		<path class="st4" d="M550.45,750.14c-0.63-3.32,1.22-5.94,2.47-8.73c6.98,0.22,7.94-5.33,9.72-10.11
			c0.32-1.43,1.59-0.97,2.49-1.26c4.58,3.02,8.47,1.49,11.95-1.95c1-0.99,1.66-2.34,3.36-2.26c7.32-0.38,14.68,0.84,21.95-0.69
			c0.04-22.79,0.08-45.58,0.12-68.37c-9.11-1.59-18.25-0.84-27.39-0.38c-3.68,0.77-6.5-2.02-9.9-2.41c-3.44,0.03-5.12-2.13-6.22-5
			c-3.86-4.37-7.69-8.74-8.58-14.83c3.16-2.44,4.58-5.11,3.6-9.54c-0.92-4.18,7.98-14.48,12.51-16.99
			c5.18-2.86,11.78-2.26,16.11-6.95c1.44-0.07,2.89-0.1,4.33-0.21c5.08-0.39,11.84,2.25,14.79-1.07c2.5-2.81,0.82-9.41,0.83-14.34
			c0.04-16.34-0.13-32.68,0.12-49.01c0.06-4.13-0.65-5.82-5.25-5.54c-7.83,0.47-15.7,0.25-23.55,0.32
			c-0.59,0.27-1.13,0.19-1.63-0.22c-1.27-3.78-3.78-5.86-7.26-8.19c-6.28-4.2-11.52-10.21-10.55-18.99
			c0.36-3.29-2.37-4.52-4.03-6.48c0.93-6.83,5.68-11.34,9.88-16.18c0.92-3.18,3.89-2.95,6.25-3.73c3.11,0.11,5.7-1.65,8.59-2.34
			c9.13,0.46,18.27,1.21,27.38-0.37c-0.04-22.79-0.08-45.59-0.12-68.38c-7.05-1.51-14.18-0.29-21.27-0.71
			c-2.43-0.14-4.9,0.42-7.29-0.43l0.14-0.35c-2.32-3.46-4.79-6.22-8.84-1.98c-1.33,0.17-2.26-0.47-3.03-1.45
			c-0.85-1.47-0.9-3.11-0.96-4.73c-0.19-4.85-2.63-6.54-7.25-5.23c-2.38-2.48-3.16-5.59-3.48-8.87c6.58-5.65,5.94-12.65,3.74-19.94
			c1.64-3.27,4.51-5.38,7.22-7.64c2.24,0.54,2.47-1.77,3.71-2.64c0.55-0.2,1.1-0.23,1.67-0.1c3.79,2.66,7.31,3.58,9.99-1.48
			c0.52-0.98,1.51-1.26,2.59-1.24c7.71-0.49,15.47,1.04,23.12-0.78c0.11-5.35,0.22-10.71,0.34-16.06c2.21-2.48,0.66-4.97,0.04-7.46
			c-1.12-3.93,0.74-7.55,1.21-11.31c2.18-2.11,4.97-1.9,7.64-1.92c12.05-0.09,24.11-0.11,36.16-0.01
			c8.9,0.08,10.08,1.28,10.11,10.14c0.11,32.42,0.17,64.84,0.11,97.26c-0.1,57.36-0.21,114.72-0.01,172.08
			c0.2,57.77-0.46,115.55,0.17,173.32c0.14,12.88-0.44,25.77-0.25,38.63c0.41,4.64-1.79,9.84,4.45,12.94
			c5.85,2.9,6.81,3.21,11.63-1.79c1.35-0.73,2.81-0.85,4.3-0.91c80.43-0.08,160.85-0.01,241.28-0.07c3.04,0,6.31,0.77,8.88-1.72
			c2.43-2.9,1.54-6.37,1.54-9.61c0.04-157.79,0.03-315.58,0.06-473.37c0-3.72-0.47-7.48,0.66-11.14c1.14-2.41,3.39-3,5.69-3.05
			c15.51-0.32,31.01-0.4,46.52,0.04c1.24,0.04,2.43,0.46,3.52,1.12c0.66,0.55,1.14,1.22,1.47,2.01c1.2,3.86,0.76,7.83,0.76,11.76
			c0.02,157.12,0.02,314.23,0.03,471.35c0,3.52-0.38,7.08,0.72,10.5c1.65,2.6,4.29,2.14,6.74,2.15c9.35,0.03,18.71-0.01,28.06,0.03
			c2.27,0.01,4.59-0.19,6.75,0.82c3.04,5.18,8.08,4.21,12.84,4.15c14.65-0.15,14.81-0.15,14.6,14.8
			c-0.15,10.96,0.94,21.96-0.67,32.89c-7.55,3.07-15.48,4.39-23.54,5.07c-2.19-0.97-4.51-0.5-6.77-0.5
			c-116.98-0.03-233.96-0.03-350.95,0c-2.26,0-4.57-0.48-6.77,0.5c-7.24-0.68-14.47-1.38-21.11-4.73c-0.85-0.94-1.13-2.12-1.52-3.29
			c-1.89-5.72-5.05-6.55-12.15-3.3c-9.11-5.81-16.3-13.56-22.4-22.39c-2.27-0.28-1.55-2.56-2.5-3.72
			c-2.41-6.87-6.01-13.3-6.93-20.75c-0.27-2.22-0.56-4.35-0.36-6.57c0.38-0.41,0.8-0.77,1.25-1.11c6.18-3.92,0.49-6.11-1.29-8.87
			c-0.11-4.52-0.22-9.04-0.33-13.56c-8.05-1.77-16.21-0.36-24.29-0.79c-3.46-0.88-6.21-6.2-10.56-1.72
			c-5.97-2.63-11-6.29-13.73-12.49c-0.32-3.07,2.11-5.5,1.5-8.9C554.73,755.12,553.83,752.07,550.45,750.14z"/>
		<path class="st4" d="M986.89,316.15c-16.42-0.02-32.83-0.06-49.25-0.03c-1.99,0-4.22-0.69-5.8,1.3c-0.38,0.16-0.75,0.32-1.13,0.49
			c-0.41,0.01-0.82,0.02-1.23,0.04c-83.65-0.24-167.3-0.03-250.94-0.1c-2.54-0.06-5.11,0.07-7.63-0.33
			c-0.39-0.08-0.8-0.17-1.17-0.33c-3.02-1.28-6.36-3.37-9.28-0.99c-2.79,2.28-0.71,5.77-0.42,8.74c0.15,1.31,0.07,2.6-0.18,3.88
			c-0.36,6.32-2.55,12.74,1.2,18.77c7.81,1.01,15.62,0.18,23.41,0.42c2.11,0.02,4.16,0.24,5.76,1.81c2.86,8.07,2.91,8.1,10.69,5.81
			c5.84,1.35,6.53,6.82,8.85,11c0.58,1.76,1.19,3.51,1.46,5.36c0.1,0.61,0.14,1.23,0.15,1.84c0,1.52-0.11,3.03-0.83,4.42
			c-3.93,2.79-6.88,5.82-2.54,10.61c0.28,1.7-0.43,2.94-1.79,3.89c-0.73,0.35-1.51,0.58-2.33,0.61
			c-7.19,0.33-11.45,3.92-12.41,11.19c-1.98,1.88-4.47,1.83-6.95,1.87c-7.94,0.46-15.96-1.2-23.8,1c-1.75,1.63-1.51,3.76-1.51,5.81
			c-0.02,18-0.02,36,0,54c0,2.05-0.24,4.19,1.51,5.77c7.73,2.18,15.62,0.43,23.4,0.99c1.82-0.08,3.6,0.12,5.34,0.62
			c1.33,0.44,2.5,1.13,3.4,2.21c1.97,6.05,9.86,14.01,15.55,15.66c1.47,0.99,2.13,2.49,2.61,4.1c0.25,0.98,0.37,1.97,0.42,2.97
			c0.04,1.96,0.03,3.93,0.04,5.9c-0.31,7.97-3.87,14.33-9.71,19.56c-1.64,1.17-3.22,2.41-4.83,3.63c-4.67,3.19-9.95,3.61-15.42,3.84
			c-6.97,0.29-14.06-1.37-20.88,1.14c-1.57,1.45-1.42,3.36-1.42,5.22c-0.01,17.79-0.01,35.57,0,53.36c0,1.85-0.17,3.76,1.3,5.23
			c2.4,1.79,5.19,1.28,7.84,1.25c7.07-0.08,14.11,0.05,21.06,1.58c6.47,1.42,12.25,3.94,15.95,9.85c1.42,2.22,2.91,4.4,4.21,6.7
			c1.23,2.73,1.86,5.6,1.91,8.59c-0.01,1.97,0,3.93-0.03,5.9c-0.02,1-0.15,1.99-0.37,2.96c-0.43,1.61-1.1,3.09-2.44,4.16
			c-7.26,3.15-12.83,7.94-15.25,15.8c-0.57,1.32-1.61,2.12-2.89,2.67c-2.01,0.87-4.08,1.12-6.24,0.72
			c-7.95-0.59-15.9-1.54-23.75,0.6c-1.59,1.72-1.29,3.85-1.29,5.89c-0.02,17.94-0.02,35.89,0,53.83c0,2.05-0.25,4.17,1.48,5.76
			c7.63,2.29,15.46,0.27,23.14,1.18c2.07,0.25,4.05,0.92,6.11,1.24c2.69,0.57,5.17,1.53,6.83,3.91c0.53,5.59,2.72,9.5,9.21,9.04
			c1.21,0.51,2,1.32,2.02,2.71c-1.38,3.35-4.99,7.06,1.51,9.11c0.52,0.29,0.92,0.69,1.2,1.23c0.66,1.71,0.59,3.49,0.61,5.27
			c0.01,0.61-0.04,1.21-0.12,1.81c-0.28,1.82-0.88,3.55-1.46,5.29c-1.91,3.87-3.04,8.32-7.54,10.29c-0.83-0.04,0.24,0.13-0.59,0.08
			c-9.19-0.6-8.19-2.54-11.39,7.01c-1.54,1.73-3.5,2.08-5.66,1.78c-7.91-0.99-15.83-0.92-23.72-0.09
			c-3.35,3.48-1.17,7.76-1.65,11.64c-0.32,2.6-0.13,5.29,0.24,7.93c0.02,0.69-0.13,1.33-0.46,1.94c-0.93,0.65-1.85,0.7-2.76-0.04
			c0-160.85,0-321.69-0.01-482.54c0-9.96,0.93-8.83-9.15-8.87c-14.34-0.06-28.68-0.05-43.02-0.08l-0.42,0.13
			c-0.16-1.88,0.35-3.55,1.57-4.99l-0.05,0.05c0.79-2.69,0.17-6.02,3.44-7.59c0.57-1.25,1.15-2.49,1.72-3.74
			c7.8-2.47,7.8-2.47,7.19-10.11c2.53-2.83,5.05-5.66,7.58-8.49c1.4-3.44,4.54-4.8,7.56-6.3c0.77-0.06,1.55-0.13,2.32-0.19
			c0.4,0.08,0.79,0.17,1.18,0.25c8.44,1.67,8.63,1.56,12.59-7.38c1.66-0.55,3.32-1.11,4.97-1.66c1.76-2.04,3.8-2.69,6.25-1.25
			c3.06,0.8,5.64-1.75,8.66-1.23c2.02-0.75,4.12-0.4,6.17-0.4c117.75-0.02,235.49-0.02,353.24,0c2.06,0,4.16-0.35,6.17,0.4
			c5.38,0.83,10.76,1.65,16.14,2.48c3.21-1.34,5.53,0.02,7.48,2.48c6.37,1.87,12.34,4.54,17.51,8.81c1.22,5.25,3.51,9.41,9.76,9.51
			c3.02,2.65,0.48,7.69,4.31,9.99c1.48,3.9,5.72,3.58,8.47,5.54c4.69,3.91,4.4,10.33,7.55,15.02c0.54,0.77,0.77,1.61,0.65,2.54
			c-4.26,7.58-4.21,8,1.43,12.42c0,0.42,0,0.83,0,1.25c-4.56,5.64-4.44,6.76,1.25,11.23c0.07,1.66,0.2,3.31,0.2,4.97
			c0.01,145.53,0.01,291.05,0,436.58c0,1.66-0.13,3.31-0.2,4.97c-5.51,5.07-5.51,5.07-1.25,11.23c0,0.42,0,0.83,0,1.25
			c-6.16,3.54-3.81,8-1.33,12.48c0.07,0.93-0.21,1.75-0.74,2.49c-3.15,4.69-2.86,11.11-7.55,15.02c-5.49,1.72-8.55,4.92-6.77,11.09
			c-0.63,3.02-2.45,4.85-5.47,5.48c-8.31,0.07-8.86,0.58-7.72,7.13c-6.13,4.72-12.54,8.91-20.12,10.97
			c-1.89-2.81-1.18-5.98-1.21-9.02c-0.07-9.89-0.4-19.79,0.11-29.66c0.32-6.17-1.9-8.14-7.68-7.31c-2.02,0.29-4.11,0.05-6.17,0.05
			c-0.69-0.7-0.76-1.52-0.44-2.4c4.41-1.95,5.93-5.22,4.49-9.85c0-0.61,0.1-1.2,0.26-1.78c0.69-1.77,1.67-3.31,3.4-4.24
			c8.27-2.14,8.79-3.8,3.18-10.22c-0.55-0.63-0.84-1.39-1.1-2.19c-0.49-2.91-0.32-5.82-0.32-8.73c-0.01-143.41-0.01-286.82,0-430.22
			c0-2.7-0.11-5.4,0.22-8.08c0.28-1.72,1.3-2.94,2.68-3.97c1.85-1.37,2.49-3.27,1.88-5.47c-0.74-2.65-2.96-2.45-5.05-2.4
			c-1.64,0-2.6-1.04-3.42-2.27c-0.32-0.45-0.6-0.93-0.88-1.41c-1.58-2.62-3.66-4.7-6.51-5.94c-2.91-1.2-5.97-1.91-9.01-2.68
			c-12.37-0.7-24.74-0.08-37.11-0.32C992.31,317.76,989.31,318.34,986.89,316.15z"/>
		<path class="st4" d="M582.64,600.68c-0.37,2.67-1.5,4.8-4.43,5.13c-6.58,0.75-12.66,2.77-16.68,8.28
			c-2.83,3.88-6.71,7.39-5.27,13.35c0.99,4.11-1.35,6.67-5.83,6.71c-0.14-3.74-0.28-7.48-0.42-11.23c-1.28-2.53-0.18-4.44,1.6-6.18
			c3.99-6.23,8.44-11.92,16.05-13.98c1.25-2.1,2.92-2.49,5.01-1.25C575.88,599.91,579.27,600.45,582.64,600.68z"/>
		<path class="st4" d="M550.42,496.95c3.39-0.07,6.42,1.66,5.76,4.85c-0.89,4.28,0.71,7,2.39,10.57c2.22,4.7,4.77,8.22,9.8,9.62
			c4.55,1.27,4.4,4.84,4.29,8.43c-3.25,2.02-5.49,0.43-7.48-2.08c-5.92-3.31-10.01-8.38-13.58-13.98c-1.78-1.74-2.88-3.65-1.6-6.18
			C550.14,504.43,550.28,500.69,550.42,496.95z"/>
		<path class="st4" d="M554.16,362.26c5.8,8.16,4.14,17.01-3.74,19.94C550.32,375.3,548.74,368.12,554.16,362.26z"/>
		<path class="st4" d="M550.45,750.14c2.22,0.07,5.47-0.41,5.56,2.42c0.17,5.09,4.02,10.93-2.12,15.18
			C548.98,762.6,550.16,756.28,550.45,750.14z"/>
		<path class="st4" d="M635.03,859.69c0.03-5.34,4.12-3.37,6.69-3.42c3.1-0.07,6.23,0.75,6.91,4.54c0.32,1.77,0.07,3.64,0.07,5.47
			C643.4,865.6,639.18,862.73,635.03,859.69z"/>
		<path class="st4" d="M648.75,265.17c-0.6,3.28,1.96,8.1-3.22,9.19c-3.44,0.72-7.92,2.93-10.56-2.06
			C638.68,268.22,643.86,266.98,648.75,265.17z"/>
		<path class="st4" d="M1097.9,299.83c-3.62-0.46-8.91,2.1-8.87-4.94c-2.6-2.65-4.64-5.42-1.9-9.18c3.47-0.59,4.31,2.16,5.57,4.38
			C1094.12,293.5,1097.41,295.92,1097.9,299.83z"/>
		<path class="st4" d="M553.9,391.07c0.39-2.97,2.37-2.95,4.47-2.18c2.11,0.77,4.22,1.73,4.27,4.5c0.04,2.43,0.03,4.86,0.04,7.29
			c-3.56,1.1-4.4-2.38-6.46-3.82c-0.53-0.66-0.88-1.39-0.86-2.26C554.83,393.44,553.53,392.61,553.9,391.07z"/>
		<path class="st4" d="M578.9,726.65c0.29,6.06-5.34,5.22-8.52,6.82c-2.18,1.1-4.72-0.38-5.25-3.44c2.64-3.1,6.84-2.04,10-3.77
			C576.45,725.8,577.76,725.38,578.9,726.65z"/>
		<path class="st4" d="M562.64,731.3c-0.09,2.25,0.25,4.63-0.36,6.72c-1.5,5.08-5.26,4.92-9.36,3.39
			C554.87,736.8,557.79,733.12,562.64,731.3z"/>
		<path class="st4" d="M1085.28,284.91c-10.91-0.21-10,1.84-9.93-10.12c4.08,1.51,6.37,5.32,9.79,7.68c0.98,0.6,2.02,1.17,1.59,2.62
			C1086.2,285.43,1085.72,285.37,1085.28,284.91z"/>
		<path class="st4" d="M1108.77,342.29c-3.37,0.18-6.12-0.29-6.06-4.7c0.05-3.44-0.11-6.79,4.81-6.53
			C1109.12,334.67,1109.32,338.44,1108.77,342.29z"/>
		<path class="st4" d="M1090.32,842.58c-2.95-8.46-1.05-11.29,7.58-11.31c-0.5,3.91-3.77,6.33-5.2,9.74
			C1092.15,841.91,1091.77,843.05,1090.32,842.58z"/>
		<path class="st4" d="M1107.52,329.82c-2.44-0.07-5.2,0.4-5.89-3.01c-0.8-3.93,0-7.31,3.65-9.58c2.58,0.51,2.23,2.1,1.41,3.86
			C1107.37,323.96,1108.24,326.81,1107.52,329.82z"/>
		<path class="st4" d="M1077.94,854.96c-4.09-1.12-3.17-4.1-1.68-6.25c2.35-3.37,5.68-3.65,9.07-1.13c0.39,0.19,0.54,0.42,0.46,0.68
			c-0.09,0.28-0.19,0.42-0.3,0.42C1082.98,850.77,1080.46,852.86,1077.94,854.96z"/>
		<path class="st4" d="M617.51,287.28c1.63,2.53,3.75,4.91,1.57,8.23c-2.35,3.6-5.71,1.9-8.77,1.88
			C612.55,293.9,614.29,290.06,617.51,287.28z"/>
		<path class="st4" d="M1107.52,800.03c-3.64-0.68-5.15-3.04-4.69-6.52c0.44-3.31,2.64-4.8,5.94-4.7
			C1109.32,792.65,1109.12,796.42,1107.52,800.03z"/>
		<path class="st4" d="M1105.28,813.86c-5.67-7.59-5.08-10.86,2.24-12.59c0.73,3.01-0.16,5.87-0.83,8.74
			C1107.37,811.72,1107.91,813.38,1105.28,813.86z"/>
		<path class="st4" d="M577.65,349.98c0.14,3.11-1.24,5.23-4.29,5.89c-3.28,0.71-5.58-0.78-6.98-3.75c0.1-1.87,1.18-1.84,2.53-1.31
			c1.86-1.3,4.05-0.93,6.12-1.17C575.98,349.12,576.89,348.98,577.65,349.98z"/>
		<path class="st4" d="M565.18,401.95c-0.27-3.69,2.19-3.62,4.75-3.52c4.14,0.17,3.97,3.17,4.04,6.03
			c-2.71,1.05-4.97-0.82-7.46-1.16C565.72,403.19,565.25,402.77,565.18,401.95z"/>
		<path class="st4" d="M567.62,780.22c0.23-3.28,2.32-4.05,5.16-3.85c2.99,0.22,3.7,2.16,3.62,4.72c0.03,0.93-0.79,0.97-1.34,1.29
			C572.49,781.96,569.9,781.63,567.62,780.22z"/>
		<path class="st4" d="M602.8,796.29c3.36,0.51,5.8,2.28,5.78,5.81c-0.02,2.64-1.63,4.51-4.74,4.16c-1.3-2.35,1.04-5.22-1.04-7.46
			C602.8,797.96,602.8,797.12,602.8,796.29z"/>
		<path class="st4" d="M602.51,474.33c-9.09,2.57-18.23,1.8-27.38,0.37C584.26,474.58,593.39,474.46,602.51,474.33z"/>
		<path class="st4" d="M575.06,782.38c0.45-0.43,0.9-0.86,1.34-1.29c6.84,0.08,13.69,0.06,20.53,0.29c1.86,0.06,4.22-1.19,5.54,1.34
			C593.33,782.61,584.2,782.5,575.06,782.38z"/>
		<path class="st4" d="M577.65,349.98c-0.88-0.11-1.75-0.23-2.63-0.34c6.34-2.52,12.94-0.51,19.4-1.08
			c2.67-0.24,5.37-0.13,8.05-0.18c-3.63,2.91-7.84,0.96-11.77,1.32C586.38,350.09,582,349.91,577.65,349.98z"/>
		<path class="st4" d="M575.12,656.38c9.15-1.42,18.3-2.2,27.39,0.38C593.39,656.64,584.25,656.51,575.12,656.38z"/>
		<path class="st4" d="M602.84,324.85c1.16,2.49,5.86,5.01-0.04,7.46C602.82,329.82,602.83,327.33,602.84,324.85z"/>
		<path class="st4" d="M561.49,353.66c1.23-0.39,2.46-0.79,3.69-1.18c-0.07,1.79,0.12,3.85-2.26,4.24c-1.35,0.22-1.32-1.17-1.54-2.1
			C561.42,354.3,561.46,353.98,561.49,353.66z"/>
		<path class="st4" d="M602.8,798.79c3.88,2,1.25,4.9,1.04,7.46c-0.33,0-0.67,0.01-1,0.01C602.83,803.77,602.82,801.28,602.8,798.79
			z"/>
		<path class="st4" d="M930.67,317.31c0.39,0.02,0.78,0.06,1.17,0.11c0.01,163.45,0.02,326.9,0.01,490.36
			c0,2.02,0.58,4.18-0.86,6.02c-0.32-0.27-0.65-0.53-0.97-0.79c-1.63-2.63-1.39-5.6-1.39-8.48c-0.03-159.46-0.03-318.92,0.01-478.39
			C928.63,323.09,928.17,319.83,930.67,317.31z"/>
		<path class="st4" d="M656.23,805.02c0.76,0,1.52,0,2.29,0c4.28,2.52,6.79,7.63,12.29,8.37c1.13,0.34,2.28,0.66,2.89,1.81
			c0.34,3.25-0.67,4.79-4.39,4.87C660.25,820.27,656.23,815.86,656.23,805.02z"/>
		<path class="st4" d="M1031.65,815.2c0.43-0.01,0.86-0.01,1.29-0.02c2.94,2.4,6.89,0.41,9.94,2.31c0,0.83,0,1.66,0,2.49
			c-2.27,0-4.56-0.17-6.82,0.04C1032.32,820.37,1031.3,818.47,1031.65,815.2z"/>
		<path class="st4" d="M1053.1,793.83c-0.08-1.65-0.24-3.31-0.24-4.96c-0.01-148.87-0.01-297.75,0-446.62c0-1.66,0.13-3.31,0.2-4.97
			c1.74,0.21,1.89,1.16,1.17,2.52c-0.04,2.7-0.12,5.39-0.12,8.09c-0.01,145.11-0.01,290.21,0,435.32c0,2.7,0.08,5.39,0.12,8.09
			C1054.95,792.63,1054.79,793.57,1053.1,793.83z"/>
		<path class="st4" d="M706.33,642.88c-1.95,4.24-5.25,7.25-9,9.84c-1.29,1.59-2.68,2.85-4.88,1.53c-0.06-4.28-1.23-9.22,5.74-9.17
			c0.51,0,1.49-1.09,1.48-1.65c-0.16-6.79,4.74-5.42,8.73-5.53C709.77,640.4,707.81,641.54,706.33,642.88z"/>
		<path class="st4" d="M697.39,479.27c5,1.81,7.29,6.24,9.93,10.32c1.25,0.94,2.14,1.98,1.09,3.61c-4.01-0.17-9.29,1.66-8.81-5.64
			c0.03-0.51-1.05-1.59-1.55-1.55c-7.31,0.47-5.47-4.8-5.64-8.81C694.92,475.83,696.05,477.79,697.39,479.27z"/>
		<path class="st4" d="M1042.87,817.49c-3.4-0.37-7.9,3.97-9.94-2.31c0.43-0.43,0.87-0.85,1.3-1.28c5.65,0.17,9.59-3.21,13.57-6.53
			C1050.3,814.52,1049.19,816.79,1042.87,817.49z"/>
		<path class="st4" d="M705.91,392.18c-3.63,5.43-8.18,9.68-14.71,11.36C691.1,394.6,695.7,391.04,705.91,392.18z"/>
		<path class="st4" d="M658.92,405.96c-0.05,22.8-0.1,45.59-0.14,68.39c0.41,0.3,0.54,0.58,0.39,0.86c-0.15,0.27-0.29,0.4-0.44,0.4
			c-1.56-0.93-1.24-2.48-1.24-3.88c-0.02-21.07-0.02-42.14,0-63.21c0-1.4-0.27-2.96,1.39-3.78c0.33,0.26,0.45,0.52,0.35,0.8
			C659.13,405.82,659.03,405.96,658.92,405.96z"/>
		<path class="st4" d="M658.78,656.74c0.05,22.8,0.1,45.59,0.15,68.39c0.31,0.28,0.4,0.55,0.29,0.81c-0.11,0.26-0.22,0.39-0.33,0.39
			c-1.85-1.03-1.4-2.83-1.4-4.41c-0.02-20.86-0.02-41.71-0.01-62.57c0-1.4-0.32-2.95,1.24-3.87c0.43,0.26,0.58,0.54,0.45,0.83
			C659.05,656.59,658.92,656.74,658.78,656.74z"/>
		<path class="st4" d="M658.89,530.71c0,23.23,0,46.45,0,69.68c-1.66-0.82-1.4-2.38-1.4-3.79c-0.01-20.7-0.01-41.4,0-62.1
			C657.49,533.09,657.23,531.53,658.89,530.71z"/>
		<path class="st4" d="M669.81,317.18c-4.62,1.25-8.52,3.52-11.03,7.77c-0.25-0.56-0.62-1.09-0.74-1.68
			c-0.61-3.16-2.1-7.48,0.87-8.99c3.32-1.69,7.98-1.93,11.17,1.87c0.33,0.33,0.4,0.6,0.21,0.79
			C670.13,317.1,669.97,317.18,669.81,317.18z"/>
		<path class="st4" d="M1054.23,339.79c-0.39-0.84-0.78-1.68-1.17-2.52c-0.53-2.44-2.02-4.67-1.51-7.32
			c2.97-2.15,6.2-2.52,7.19,1.49C1059.57,334.83,1060.77,339.78,1054.23,339.79z"/>
		<path class="st4" d="M1053.1,793.83c0.37-0.84,0.75-1.69,1.13-2.53c4.91-0.29,4.88,3.01,4.89,6.51c0.02,3.89-2.14,4.91-5.5,4.72
			c-1.02-0.06-2.04-0.01-3.06-0.01c-1.16-2.7-0.26-4.72,2.08-6.25C1052.79,795.46,1052.95,794.64,1053.1,793.83z"/>
		<path class="st4" d="M702.52,773.89c-3.59,3.48-7.46,6.47-12.62,7.22C689.96,771.79,691.45,770.93,702.52,773.89z"/>
		<path class="st4" d="M689.96,350.88c4.44,0.28,7.81,2.79,11.17,5.34c-2.22,4.2-6.22,2.52-9.08,1.93
			C688.15,357.35,690.53,353.4,689.96,350.88z"/>
		<path class="st4" d="M696.14,730.39c4.7,1.86,8.19,4.97,10.12,9.72C696.15,740.24,696.15,740.24,696.14,730.39z"/>
		<path class="st4" d="M709.96,379.85c0.02,3.12-0.58,6.05-2.46,8.63c-2.83-0.37-3.85-2.45-3.6-4.79c0.35-3.24,2.69-4.85,5.87-5.23
			c0.4,0.26,0.57,0.55,0.49,0.88C710.17,379.68,710.07,379.85,709.96,379.85z"/>
		<path class="st4" d="M707.5,742.61c1.87,2.63,2.55,5.58,2.39,8.76c-3.05,1.47-4.79-0.21-5.67-2.77
			C703.19,745.65,704.18,743.39,707.5,742.61z"/>
		<path class="st4" d="M658.82,348.37c6.82,0.05,13.64,0.02,20.46,0.2c1.93,0.05,4.16-0.97,5.76,1.06c-8.73,0-17.46,0.01-26.18,0.01
			c-0.42-0.27-0.57-0.55-0.44-0.84C658.55,348.52,658.69,348.37,658.82,348.37z"/>
		<path class="st4" d="M658.73,475.62c0.02-0.42,0.03-0.84,0.05-1.26c7.06,0.05,14.13,0.03,21.19,0.19c1.71,0.04,3.78-0.98,5.1,1.11
			C676.28,475.64,667.5,475.63,658.73,475.62z"/>
		<path class="st4" d="M658.78,656.74c-0.02-0.42-0.03-0.84-0.05-1.26c8.74,0.33,17.54-1.3,26.21,0.9
			C676.22,656.49,667.5,656.62,658.78,656.74z"/>
		<path class="st4" d="M685.01,782.37c-8.73,0.11-17.46,0.23-26.19,0.34c-0.41-0.3-0.53-0.58-0.39-0.86
			c0.14-0.28,0.28-0.41,0.42-0.41C667.57,781.81,676.36,780.1,685.01,782.37z"/>
		<path class="st4" d="M658.86,781.44c-0.01,0.43-0.02,0.85-0.03,1.28c-0.09,7.03-0.18,14.06-0.28,21.08
			C656.98,796.32,656.4,788.86,658.86,781.44z"/>
		<path class="st4" d="M658.82,348.37c0.01,0.43,0.02,0.85,0.03,1.28c-2.54-7-1.8-14.04-0.31-21.1
			C658.64,335.16,658.73,341.77,658.82,348.37z"/>
		<path class="st4" d="M1086.69,284.86c0.41,0.41,0.83,0.83,1.24,1.24c-3.91,3.47,1.35,5.78,1.1,8.79
			c-6.28-1.44-2.82-6.53-3.74-9.98C1085.75,284.9,1086.22,284.88,1086.69,284.86z"/>
		<path class="st4" d="M709.96,379.85c-0.07-0.46-0.13-0.93-0.2-1.39c0.06-1.71,0.12-3.41,0.18-5.12
			C711.79,375.51,711.89,377.68,709.96,379.85z"/>
		<path class="st4" d="M709.98,751.27c1.91,2.17,1.81,4.33-0.03,6.48C709.96,755.59,709.97,753.43,709.98,751.27z"/>
		<path class="st4" d="M709.95,625.27c1.91,2.17,1.87,4.34,0,6.51C709.95,629.61,709.95,627.44,709.95,625.27z"/>
		<path class="st4" d="M709.95,499.3c1.87,2.17,1.91,4.34,0,6.51C709.95,503.65,709.95,501.48,709.95,499.3z"/>
	</g>
</g>
</svg>
