<?xml version="1.0" encoding="utf-8"?>
<!-- Generator: Adobe Illustrator 27.1.1, SVG Export Plug-In . SVG Version: 6.00 Build 0)  -->
<svg version="1.1" id="Camada_1" xmlns="http://www.w3.org/2000/svg" xmlns:xlink="http://www.w3.org/1999/xlink" x="0px" y="0px"
	 viewBox="0 0 920 1137" style="enable-background:new 0 0 920 1137;" xml:space="preserve">
<style type="text/css">
	.st0{fill:#FFFFFF;}
	.st1{opacity:0.78;}
	.st2{opacity:0.47;fill:#FFFFFF;}
	.st3{fill:#B6B2A7;}
	.st4{fill:#032B33;}
</style>
<g>
	<g>
		<path class="st4" d="M175.29,380.26c2.64,2.55,1.37,5.82,1.38,8.73c0.07,114.69,0.07,229.38,0,344.06c0,2.91,1.27,6.18-1.37,8.73
			c-0.08-17.33-0.23-34.66-0.23-52c-0.02-99.83-0.01-199.65,0-299.48C175.06,386.97,175.21,383.62,175.29,380.26z"/>
		<path class="st4" d="M280.78,855.68c0.84-1.43,2.23-1.47,3.64-1.47c61.01,0.11,122.02,0.22,183.02,0.34c0,0.38,0,0.75,0,1.12
			C405.23,855.67,343.01,855.67,280.78,855.68z"/>
		<path class="st4" d="M467.45,855.67c0-0.38,0-0.75,0-1.13c60.44-0.1,120.88-0.2,181.32-0.29c1.4,0,2.81-0.02,3.65,1.42
			C590.76,855.67,529.11,855.67,467.45,855.67z"/>
		<path class="st4" d="M180.37,775.29c13.26,0.02,15.3,4.76,8.05,18.69C184.43,788.31,181.27,782.29,180.37,775.29z"/>
		<path class="st4" d="M238.93,843.87c3.21-5.76,8.68-5.8,13.64-4.12c5.15,1.75,2.53,7.07,3.14,10.87
			C249.46,850.01,244.17,847.02,238.93,843.87z"/>
		<path class="st4" d="M203.57,817.42c10.13-4.01,11.79-2.41,11.81,11.35C210.51,825.96,207.05,821.69,203.57,817.42z"/>
		<path class="st4" d="M650.8,272.66c-95.1,0.06-190.2,0.14-285.31,0.17c-27.13,0.01-54.26-0.11-81.39-0.17
			c2.16-2.77,5.2-1.43,7.79-1.43c117.03-0.08,234.07-0.08,351.1,0C645.59,271.22,648.63,269.91,650.8,272.66z"/>
		<path class="st4" d="M758.35,743.55c-0.06-65.73-0.17-131.46-0.17-197.19c0-54.82,0.11-109.64,0.17-164.47
			c2.75,2.17,1.43,5.2,1.44,7.8c0.08,115.36,0.08,230.71,0,346.07C759.78,738.34,761.11,741.38,758.35,743.55z"/>
		<path class="st4" d="M706.13,837.63c-0.02-2.23,0.11-4.46-0.09-6.67c-0.43-4.74,0.94-7.54,6.38-6.97c3.84,0.4,7.37,0.16,7.26-5.28
			c-0.05-2.52,2.04-2.99,4.12-3.1c2.14-0.11,4.32-0.87,3.93-3.27c-1.89-11.87,6.08-10.46,13.32-10.17
			C732.18,816.72,720.67,828.67,706.13,837.63z"/>
		<path class="st4" d="M746.47,792.27c-8.2-8.62-0.29-17.04,0.81-25.38c0.42-3.18,5.85-1.2,8.98-1.69
			C753.69,774.48,751.23,783.79,746.47,792.27z"/>
		<path class="st4" d="M741.05,324.83c-7.18,0.42-14.73,1.4-13.29-9.89c0.11-0.88-0.79-2.66-1.37-2.73
			c-8.42-0.99-6.86-7.21-6.82-12.65c6.99,5.44,12.55,12.27,18.33,18.88c2.41,1.53,4.42,3.29,3.73,6.58L741.05,324.83z"/>
		<path class="st4" d="M180.37,351.91c0.53-2.81,1.06-5.62,1.6-8.43c3.86-2.37,1.83-8.43,6.47-10.31c0.29,1.04,0.41,2.18,0.9,3.12
			C195.18,347.55,192.87,351.61,180.37,351.91z"/>
		<path class="st4" d="M679.18,850.63c0.53-3.63-1.8-8.46,2.45-10.54c4.98-2.44,10.14-1.18,14.5,2.48
			C691.13,846.61,685.22,848.75,679.18,850.63z"/>
		<path class="st4" d="M255.71,276.48c-0.61,3.8,2.01,9.12-3.13,10.87c-4.95,1.68-10.43,1.67-13.63-4.11
			c3.34-1.32,6.68-2.64,10.02-3.96c1.09-2.07,2.72-3.16,5.13-2.88C254.65,276.15,255.19,276.18,255.71,276.48z"/>
		<path class="st4" d="M696.14,284.54c-3.74,4.78-8.98,4.11-13.69,2.9c-4.69-1.21-2.92-5.88-3.27-9.27
			C685.13,279.51,691.17,280.6,696.14,284.54z"/>
		<path class="st4" d="M752.84,351.82c-3.36-0.36-7.79,1.39-9.29-3.15c-1.63-4.92-0.64-9.74,2.92-13.8
			C750.4,339.84,751.5,345.88,752.84,351.82z"/>
		<path class="st4" d="M215.32,299.56c0.1,11.92,0.1,11.92-13.07,11.93C205.71,306.53,209.22,301.62,215.32,299.56z"/>
		<path class="st4" d="M514.39,686.45c-87.32,0.01-174.63,0.03-261.95,0.04c-0.56,0.57-1.11,0.58-1.63-0.06
			c1.94-3.08,5.04-1.83,7.64-1.83c82.77-0.07,165.54-0.07,248.31,0C509.35,684.6,512.45,683.37,514.39,686.45z"/>
		<path class="st4" d="M252.44,440.62c43.66,0.09,87.31,0.24,130.97,0.25c43.66,0.01,87.32-0.13,130.98-0.2
			c-1.94,3.08-5.04,1.84-7.63,1.85c-82.77,0.07-165.54,0.07-248.31,0c-2.59,0-5.7,1.25-7.64-1.83
			C251.33,440.04,251.88,440.05,252.44,440.62z"/>
		<path class="st4" d="M674.44,766.89c3.45-6.45,8.37-12.29,8.39-20.17c6.22-0.9,6.72,2.87,6.49,7.64
			c-0.25,5.25,0.93,11.17-6.53,12.4C680.07,767.2,677.23,766.87,674.44,766.89z"/>
		<path class="st4" d="M650.62,780.61c7.36-1.46,13.37-5.97,20.1-8.86c0.12,12.65-4.58,16.36-16.78,13.64
			C650.96,784.72,650.67,782.93,650.62,780.61z"/>
		<path class="st4" d="M680.59,371.98c-1.49-3.36-2.99-6.72-4.48-10.08c13.22,0.01,13.92,0.8,13.24,12.09
			c-0.27,4.48-2.02,6.63-6.52,6.39C682.08,377.59,681.33,374.79,680.59,371.98z"/>
		<g>
			<path class="st4" d="M267.22,362.67c-0.38,0.26-0.69,0.57-0.77,0.81C266.71,363.21,266.97,362.94,267.22,362.67z"/>
			<path class="st4" d="M758.45,751.76c-0.03-2.74-0.06-5.48-0.1-8.22c1.08-2.41,0.61-4.97,0.61-7.46
				c0.02-115.58,0.02-231.16,0-346.74c0-2.49,0.47-5.05-0.61-7.46c0.03-2.74,0.07-5.48,0.1-8.22c1.77-3.27,0.17-5.86-1.68-8.4
				c-0.93-4.59-1.32-9.34-3.92-13.44c-6.54-2.57-9.4-6.82-6.39-13.84c0.4-0.94,0.66-2.07,0.02-3.11c-0.16-4.23-3.34-6.84-5.41-10.04
				c-2.52-2.96-8.74-0.94-9.29-4.38c-1.4-8.81-10.63-12.55-12.19-20.9c-0.57-2.83-3.92-2.6-5.17-4.69c-1.94-3.1-4.02-5.99-8.33-5.51
				c-3.48-1.26-5.81-4.88-9.93-4.82c-6.95,1.31-13.98,2.84-16.96-6.38c-9.07-3.84-18.62-5.26-28.39-5.5
				c-2.41-1.09-4.97-0.61-7.46-0.61c-117.26-0.02-234.52-0.02-351.78,0c-2.49,0-5.05-0.47-7.46,0.61
				c-9.68-0.32-18.89,2.81-28.38,3.82c-5.18,10.92-5.18,10.92-16.77,6.76c-3.51,1.19-5.84,4.81-9.93,4.79
				c-1.56,1.3-4.03,1.24-5.04,3.36c-1.76,3.91-7.32,3.8-8.65,8.17c-1.59,7-6.65,10.21-13.07,11.93c-1.88,2.24-3.76,4.48-5.64,6.72
				c-1.37,1.52-4.28,2-3.36,5.04c-1.28,3.47-4.86,5.82-4.82,9.92c-1.15,1.47-0.79,3.04-0.41,4.68c2.35,10.11,2.34,10.12-7.38,13.04
				c-0.28,0.28-0.56,0.56-0.84,0.83c-2.41,9.37-5.26,18.67-4.52,28.54c1.06,2.42,0.6,4.97,0.6,7.46
				c0.02,115.54,0.02,231.07,0,346.61c0,2.49,0.45,5.04-0.6,7.46c-0.99,11.57,1.01,22.69,5.08,33.5c9.5,4.57,9.5,4.57,7.49,15.57
				c-0.2,1.1-0.12,2.16,0.55,3.11c2.82,9.26,9.66,15.92,15.15,23.45c8.98-1.46,9.42,5.96,11.81,11.35
				c7.32,5.86,14.65,11.7,23.55,15.1c11.74-3.87,11.74-3.87,16.78,6.76c7.97,3.58,16.49,4.49,25.07,5.05
				c2.99-1.1,6.09-0.56,9.13-0.57c59.21-0.04,118.41-0.03,177.62-0.03c58.59,0,117.18-0.01,175.76,0.03c3.04,0,6.14-0.53,9.12,0.56
				c2.9,0.66,5.67,0.35,8.28-1.12c6.43-0.02,12.42-2.18,18.48-3.92c4.43-9.57,4.43-9.57,15.37-7.74c0.54,0.09,1.07-0.01,1.58-0.32
				c3.9-0.49,7.02-2.57,10-4.94c2.07-5.89,3.59-11.2,11.68-12.86c4.3-0.88,10.22-6.66,11.02-11.12c1.43-7.91,6.83-9.12,12.22-11.48
				c1.81-3.3,3.61-6.6,5.42-9.9c0.85-2.52-0.73-4.73-0.9-7.15c-0.59-8.39,3.47-16.16,10.69-19.92c0.19-0.56,0.37-1.12,0.56-1.68
				C759.08,759.84,760.79,756.08,758.45,751.76z M252.36,371.3c-1.2-3.48,1.28-5.52,3.55-7.64c3.8-2.84,7.12-6.16,9.96-9.96
				c2.61-2.64,5.05-5.77,9.19-3.74c1.55-1.93,3.33-3.08,5.87-1.79c1.61,0.06,3.22,0.11,4.83,0.17c2.39-1.19,4.95-0.67,7.42-0.67
				c71.24-0.03,142.48-0.03,213.71,0.01c2.45,0,5.05-0.7,7.34,0.86c0.05,30.71,0.1,61.42,0.16,92.13c-1.65,1.55-3.7,1.01-5.6,1.01
				c-84.52,0.02-169.04,0.04-253.56,0.01c-0.85,0-1.67-0.14-2.5-0.24c-2.47-3.83-0.99-8.08-1.13-12.12
				c-0.53-15.76,0.7-31.55-0.66-47.31c-0.03-2.2-0.06-4.41-0.09-6.61C250.71,373.74,251.09,372.32,252.36,371.3z M514.23,778.58
				c-2.86,1.7-6.01,0.84-9.01,0.85c-70.06,0.06-140.12,0.04-210.18,0.07c-3.04,0-6.14-0.54-9.13,0.57
				c-0.54,0.18-1.09,0.37-1.63,0.55c-4.35,2.26-7.82,0.7-10.91-2.5c-0.06-0.19-0.15-0.38-0.22-0.57c-3.57,1.14-5.58-1.15-7.29-4.12
				c-2.29-3.24-5.05-6-8.28-8.28c-2.27-1.48-4.73-2.86-3.53-6.05c-0.04-0.01-0.07-0.02-0.11-0.03c-3.17-2.21-4.5-5.14-3.55-8.97
				c0.19-1.11,0.38-2.22,0.57-3.33c1.31-17.31,0.17-34.66,0.61-51.98c0.08-3-0.9-6.17,0.96-9c2.48-0.63,5.01-0.35,7.51-0.35
				c82.08-0.02,164.16-0.02,246.24,0.03c2.7,0,5.6-0.92,8.1,0.99C514.34,717.16,514.28,747.87,514.23,778.58z M514.54,604.71
				c0.01,3.65,0.11,6.04-5.09,6.03c-85.67-0.28-171.35-0.31-257.02-0.4c-1.64-2.58-0.84-5.46-0.85-8.19
				c-0.07-25.73-0.07-51.46,0-77.19c0.01-2.73-0.79-5.6,0.85-8.19c50.39-0.09,100.79-0.2,151.18-0.26
				c34.72-0.04,69.44,0.12,104.16-0.14c5.48-0.04,6.92,1.38,6.87,6.87C514.34,550.39,514.47,577.55,514.54,604.71z M674.44,766.89
				c-1.24,1.62-2.48,3.24-3.72,4.86c-5.4,5.9-11.45,10.32-20.1,8.86c-0.55-0.19-1.1-0.38-1.65-0.57c-16.72-1.3-33.47-0.18-50.2-0.61
				c-3.01-0.08-6.15,0.81-9.03-0.86c-0.63-30.81-0.9-61.62,0.14-92.42c8.56-1.6,17.21-0.71,25.8-0.67
				c22.29,0.11,44.59-0.74,66.88,0.44c1.36,19.77,1.22,39.53,0.1,59.3c-0.17,0.52-0.12,1.02,0.17,1.49
				C685.84,755.86,680.66,761.59,674.44,766.89z M590.34,516.62c30.71,0.05,61.42,0.1,92.13,0.16c1.64,2.58,0.84,5.46,0.85,8.19
				c0.07,25.73,0.07,51.46,0,77.19c-0.01,2.73,0.79,5.6-0.85,8.19c-30.71,0.05-61.42,0.1-92.13,0.16c-1.36-1.36-1.02-3.1-1.02-4.74
				c-0.02-28.13-0.02-56.27,0-84.4C589.32,519.72,588.98,517.97,590.34,516.62z M682.83,380.39c-0.05,1.05-0.11,2.1-0.16,3.15
				c1.2,19.16,1.06,38.32,0.05,57.49c-13.05,1.53-26.14,0.59-39.2,0.59c-17.82-0.01-35.65,0.79-53.46-0.48
				c-1.7-8-0.71-16.09-0.68-24.13c0.1-22.85-0.74-45.72,0.44-68.56c19.77-1.36,39.54-1.21,59.31-0.1c1.62-0.05,3.23-0.11,4.85-0.16
				c2.39-0.73,4.19,0.25,5.76,1.93c0.01,0.03,0.03,0.05,0.04,0.07c4.31-1.14,6.82,1.78,9.32,4.71c2.33,2.33,4.67,4.67,7,7
				c2.96,2.52,5.89,5.05,4.68,9.43c0.25,0.12,0.49,0.26,0.75,0.38C683.64,374.35,684.86,377.13,682.83,380.39z"/>
		</g>
		<path class="st4" d="M590.19,686.42c0.07,30.71,0.14,61.43,0.21,92.14c0.41,0.37,0.54,0.74,0.39,1.1
			c-0.15,0.35-0.3,0.53-0.44,0.53c-2.49-1.39-1.88-3.81-1.88-5.95c-0.03-28.1-0.03-56.2-0.01-84.3c0-1.88-0.43-3.98,1.67-5.22
			c0.58,0.36,0.79,0.73,0.61,1.11C590.56,686.22,590.38,686.42,590.19,686.42z"/>
		<path class="st4" d="M590.38,348.55c-0.06,30.71-0.13,61.43-0.19,92.14c0.55,0.4,0.73,0.79,0.52,1.16
			c-0.2,0.36-0.4,0.54-0.59,0.54c-2.09-1.25-1.66-3.34-1.67-5.22c-0.02-28.39-0.02-56.78,0-85.16c0-1.89-0.37-3.99,1.87-5.09
			c0.45,0.35,0.61,0.7,0.47,1.07C590.67,348.36,590.53,348.55,590.38,348.55z"/>
		<path class="st4" d="M590.34,516.62c0,31.29,0,62.58,0,93.88c-2.24-1.1-1.88-3.21-1.88-5.1c-0.02-27.89-0.02-55.78,0-83.67
			C588.46,519.82,588.1,517.72,590.34,516.62z"/>
		<path class="st4" d="M590.12,442.39c0.02-0.57,0.05-1.14,0.07-1.7c30.75-0.03,61.51-0.06,92.26-0.08c0.56-0.58,1.1-0.54,1.62,0.05
			c-1.39,2.5-3.83,1.88-5.97,1.88C648.78,442.52,619.45,442.45,590.12,442.39z"/>
		<path class="st4" d="M590.19,686.42c-0.02-0.57-0.05-1.14-0.07-1.71c29.33-0.05,58.65-0.12,87.98-0.14c2.14,0,4.58-0.62,5.97,1.88
			c-0.52,0.62-1.06,0.61-1.62,0.05C651.7,686.47,620.95,686.45,590.19,686.42z"/>
		<path class="st4" d="M669.1,354.9c-3.36-1.49-6.72-2.99-10.08-4.48c-1.68-0.75-3.36-1.49-5.04-2.24c-0.35-6.67,4.2-6.44,8.84-6.47
			c5.26-0.03,6.52,2.96,6.3,7.44C669.02,351.06,669.1,352.98,669.1,354.9z"/>
		<path class="st4" d="M265.87,773.42c2.75,1.25,5.51,2.5,8.26,3.75c3.01,2.24,6.55,2.93,10.15,3.44c-2.48,8.19-9.33,4.85-14,4.34
			C263.19,784.17,266.61,777.63,265.87,773.42z"/>
		<path class="st4" d="M275.88,350.42c-3.99-0.92-6.26,3.44-10.01,3.27c-0.13-6.1-1.59-12.9,8.52-12.06
			c4.48,0.37,6.78,1.92,6.53,6.53C279.24,348.92,277.56,349.67,275.88,350.42z"/>
		<path class="st4" d="M254.31,758.48c1.09,2.22,2.18,4.43,3.27,6.65c-4.21-0.73-10.4,2.67-11.65-4.4
			c-0.69-3.88-2.34-9.37,4.46-10.65C251.7,752.88,253.01,755.68,254.31,758.48z"/>
		<path class="st4" d="M255.91,363.65c-1.09,2.78-2.18,5.55-3.27,8.33c-0.51,1.18,0.18,2.99-1.78,3.42c-3.87-1.7-4.11-5-3.19-8.33
			C248.87,362.73,252.7,363.72,255.91,363.65z"/>
	</g>
</g>
<path class="st0" d="M499.87,463H266.13c-18.85,0-34.13-15.28-34.13-34.13v-75.74c0-18.85,15.28-34.13,34.13-34.13h233.74
	c18.85,0,34.13,15.28,34.13,34.13v75.74C534,447.72,518.72,463,499.87,463z"/>
<path class="st0" d="M648.87,463h-34.74c-18.85,0-34.13-15.28-34.13-34.13v-75.74c0-18.85,15.28-34.13,34.13-34.13h34.74
	c18.85,0,34.13,15.28,34.13,34.13v75.74C683,447.72,667.72,463,648.87,463z"/>
<path class="st0" d="M653.87,633h-34.74c-18.85,0-34.13-15.28-34.13-34.13v-75.74c0-18.85,15.28-34.13,34.13-34.13h34.74
	c18.85,0,34.13,15.28,34.13,34.13v75.74C688,617.72,672.72,633,653.87,633z"/>
<path class="st0" d="M654.87,803h-34.74c-18.85,0-34.13-15.28-34.13-34.13v-75.74c0-18.85,15.28-34.13,34.13-34.13h34.74
	c18.85,0,34.13,15.28,34.13,34.13v75.74C689,787.72,673.72,803,654.87,803z"/>
<path class="st0" d="M502.87,633H269.13c-18.85,0-34.13-15.28-34.13-34.13v-75.74c0-18.85,15.28-34.13,34.13-34.13h233.74
	c18.85,0,34.13,15.28,34.13,34.13v75.74C537,617.72,521.72,633,502.87,633z"/>
<path class="st0" d="M502.87,805H269.13c-18.85,0-34.13-15.28-34.13-34.13v-75.74c0-18.85,15.28-34.13,34.13-34.13h233.74
	c18.85,0,34.13,15.28,34.13,34.13v75.74C537,789.72,521.72,805,502.87,805z"/>
<path class="st0" d="M493.87,621H271.13c-18.85,0-34.13-15.28-34.13-34.13v-41.74c0-18.85,15.28-34.13,34.13-34.13h222.74
	c18.85,0,34.13,15.28,34.13,34.13v41.74C528,605.72,512.72,621,493.87,621z"/>
</svg>
